<svg width="26" height="27" viewBox="0 0 26 27" fill="none" xmlns="http://www.w3.org/2000/svg">
<g clip-path="url(#clip0_389_1216)">
<path d="M20.6321 14.6091L23.685 14.6091C24.1065 14.6091 24.4482 14.2674 24.4482 13.8459L24.4482 1.63445C24.4482 1.21296 24.1065 0.871204 23.685 0.871204L20.6321 0.871204C20.2107 0.871204 19.8689 1.21291 19.8689 1.63444L19.8689 13.8459C19.8689 14.2674 20.2106 14.6091 20.6321 14.6091Z" fill="white"/>
<path d="M1.56693 12.5859C1.70155 13.7698 2.80751 14.609 3.99909 14.609L9.94937 14.609C9.44369 15.5145 9.17227 18.0755 9.1843 19.1217C9.20426 20.8535 10.6384 22.2412 12.3702 22.2412L12.9999 22.2412C13.4218 22.2412 13.7632 21.8999 13.7632 21.478C13.7632 19.7131 14.4504 16.5275 15.7465 15.2313C16.6189 14.359 17.3646 14.0428 18.3425 13.5541L18.3425 2.10206C16.8454 1.60304 14.9444 0.871029 12.047 0.871028L7.05439 0.871028C5.40933 0.871028 4.12812 2.39461 4.76558 4.00438C3.79439 4.26895 3.07817 5.15965 3.07817 6.21356C3.07817 6.51098 3.13555 6.79566 3.23915 7.05729C1.60252 7.5032 1.00011 9.52403 2.13603 10.7929C1.71871 11.2591 1.48857 11.8968 1.56693 12.5859Z" fill="white"/>
</g>
<defs>
<clipPath id="clip0_389_1216">
<rect width="26" height="26" fill="white" transform="translate(26 26.8711) rotate(-180)"/>
</clipPath>
</defs>
</svg>
