<svg width="25" height="25" viewBox="0 0 25 25" fill="none" xmlns="http://www.w3.org/2000/svg">
<g id="heart 1" clip-path="url(#clip0_389_626)">
<path id="Vector" d="M22.1816 3.44686C20.9365 2.09643 19.2281 1.35268 17.3706 1.35268C15.9822 1.35268 14.7107 1.79162 13.5913 2.65723C13.0265 3.09416 12.5147 3.62871 12.0634 4.25263C11.6124 3.62889 11.1004 3.09416 10.5353 2.65723C9.41614 1.79162 8.14462 1.35268 6.75621 1.35268C4.89876 1.35268 3.19012 2.09643 1.94503 3.44686C0.7148 4.7815 0.0371094 6.60482 0.0371094 8.58119C0.0371094 10.6154 0.795176 12.4774 2.4227 14.4413C3.87864 16.198 5.97117 17.9813 8.39438 20.0463C9.22181 20.7515 10.1597 21.5509 11.1336 22.4024C11.3909 22.6277 11.721 22.7518 12.0634 22.7518C12.4057 22.7518 12.736 22.6277 12.9929 22.4027C13.9667 21.5511 14.9052 20.7514 15.733 20.0458C18.1558 17.9811 20.2484 16.198 21.7043 14.4411C23.3318 12.4774 24.0897 10.6154 24.0897 8.58101C24.0897 6.60482 23.412 4.7815 22.1816 3.44686Z" fill="white"/>
</g>
<defs>
<clipPath id="clip0_389_626">
<rect width="24.0526" height="24.0526" fill="white" transform="translate(0.0371094 0.0372925)"/>
</clipPath>
</defs>
</svg>
