<svg width="27" height="26" viewBox="0 0 27 26" fill="none" xmlns="http://www.w3.org/2000/svg">
<g clip-path="url(#clip0_389_1225)">
<path d="M6.23888 12.262H3.18597C2.76449 12.262 2.42273 12.6037 2.42273 13.0252V25.2366C2.42273 25.6581 2.76444 25.9999 3.18597 25.9999H6.23883C6.66032 25.9999 7.00207 25.6582 7.00207 25.2366V13.0252C7.00207 12.6037 6.66042 12.262 6.23888 12.262Z" fill="white"/>
<path d="M25.304 14.2852C25.1694 13.1012 24.0635 12.2621 22.8719 12.2621H16.9216C17.4273 11.3566 17.6987 8.79556 17.6867 7.74937C17.6667 6.01763 16.2326 4.62988 14.5008 4.62988H13.871C13.4492 4.62988 13.1078 4.97123 13.1078 5.39312C13.1078 7.15802 12.4206 10.3436 11.1245 11.6398C10.2521 12.5121 9.50634 12.8282 8.52844 13.317V24.769C10.0256 25.2681 11.9266 26.0001 14.824 26.0001H19.8166C21.4616 26.0001 22.7429 24.4765 22.1054 22.8667C23.0766 22.6021 23.7928 21.7114 23.7928 20.6575C23.7928 20.3601 23.7354 20.0754 23.6318 19.8138C25.2684 19.3679 25.8709 17.3471 24.7349 16.0782C25.1523 15.612 25.3824 14.9743 25.304 14.2852Z" fill="white"/>
</g>
<defs>
<clipPath id="clip0_389_1225">
<rect width="26" height="26" fill="white" transform="translate(0.870972)"/>
</clipPath>
</defs>
</svg>
