<svg width="24" height="22" viewBox="0 0 24 22" fill="none" xmlns="http://www.w3.org/2000/svg">
<path d="M13.2656 5.49154C13.2656 4.0958 12.1301 2.9603 10.7344 2.9603C9.33863 2.9603 8.20312 4.0958 8.20312 5.49154C8.20312 6.88729 9.33863 8.02279 10.7344 8.02279C12.1301 8.02279 13.2656 6.88729 13.2656 5.49154ZM9.14062 5.49154C9.14062 4.61273 9.85556 3.8978 10.7344 3.8978C11.6132 3.8978 12.3281 4.61273 12.3281 5.49154C12.3281 6.37036 11.6132 7.08529 10.7344 7.08529C9.85556 7.08529 9.14062 6.37036 9.14062 5.49154Z" fill="white"/>
<path d="M6.64445 11.5526C7.24675 11.2458 7.69347 10.7227 7.90239 10.0798C8.11126 9.43695 8.05731 8.75117 7.75042 8.14892C7.44353 7.54662 6.92045 7.09991 6.27761 6.89098C5.63467 6.68206 4.94894 6.73606 4.34669 7.04295C3.74439 7.34984 3.29767 7.87292 3.08875 8.51576C2.87987 9.15865 2.93383 9.84443 3.24072 10.4467C3.54761 11.049 4.07069 11.4957 4.71353 11.7046C4.97097 11.7882 5.2352 11.8297 5.49822 11.8297C5.89211 11.8298 6.28328 11.7367 6.64445 11.5526ZM5.00322 10.813C4.5985 10.6815 4.2692 10.4003 4.07598 10.0211C3.88276 9.64193 3.84878 9.21021 3.98031 8.8055C4.1118 8.40078 4.39305 8.07148 4.77222 7.87826C4.99961 7.76239 5.24584 7.7038 5.49386 7.7038C5.65942 7.7038 5.82583 7.72995 5.98787 7.78259C6.39259 7.91408 6.72189 8.19533 6.91511 8.5745C7.10833 8.95367 7.14231 9.38539 7.01078 9.7901C6.8793 10.1948 6.59805 10.5241 6.21887 10.7173C5.83965 10.9105 5.40794 10.9445 5.00322 10.813Z" fill="white"/>
<path d="M6.00875 17.5041C6.45707 17.8298 6.97738 17.9866 7.49314 17.9866C8.27652 17.9866 9.04958 17.625 9.54421 16.9442C9.94161 16.3972 10.1022 15.7282 9.99641 15.0604C9.89061 14.3927 9.53118 13.8061 8.98419 13.4087C8.43721 13.0113 7.76835 12.8507 7.10047 12.9565C6.43269 13.0623 5.8461 13.4217 5.44874 13.9687C4.62847 15.0978 4.87968 16.6838 6.00875 17.5041ZM6.20727 14.5197C6.45744 14.1754 6.82677 13.949 7.24719 13.8824C7.33161 13.8691 7.41604 13.8625 7.49989 13.8625C7.83364 13.8625 8.15802 13.9672 8.43322 14.1672C9.14413 14.6837 9.30229 15.6822 8.78577 16.3931C8.26925 17.104 7.27072 17.2622 6.55982 16.7457C5.84891 16.2292 5.69075 15.2306 6.20727 14.5197Z" fill="white"/>
<path d="M13.9754 17.9866C14.4912 17.9866 15.0117 17.8298 15.4599 17.5042C16.589 16.6838 16.8402 15.0978 16.0198 13.9687C15.6224 13.4218 15.0358 13.0623 14.3681 12.9565C13.7003 12.8508 13.0314 13.0114 12.4844 13.4087C11.9374 13.8061 11.578 14.3927 11.4722 15.0605C11.3664 15.7282 11.527 16.3972 11.9244 16.9442C12.4191 17.6251 13.192 17.9866 13.9754 17.9866ZM13.0354 14.1672C13.3798 13.917 13.8008 13.8158 14.2214 13.8825C14.6418 13.9491 15.0111 14.1754 15.2613 14.5198C15.7778 15.2307 15.6197 16.2292 14.9088 16.7457C14.1979 17.2622 13.1993 17.1041 12.6828 16.3932C12.1663 15.6823 12.3245 14.6837 13.0354 14.1672Z" fill="white"/>
<path d="M15.1913 6.89094C14.5484 7.09986 14.0253 7.54658 13.7185 8.14888C13.4116 8.75117 13.3577 9.43691 13.5665 10.0798C13.7755 10.7227 14.2222 11.2458 14.8245 11.5526C15.1856 11.7366 15.5768 11.8297 15.9707 11.8297C16.2337 11.8297 16.4981 11.7882 16.7554 11.7046C17.3983 11.4957 17.9214 11.049 18.2282 10.4467C18.5351 9.84439 18.5891 9.15866 18.3802 8.51577C18.1713 7.87288 17.7245 7.3498 17.1222 7.04295C16.52 6.73606 15.8342 6.68216 15.1913 6.89094ZM16.6967 7.87827C17.0758 8.07149 17.3571 8.40074 17.4886 8.8055C17.6201 9.21022 17.5861 9.64194 17.3929 10.0211C17.1997 10.4003 16.8704 10.6815 16.4657 10.813C16.0609 10.9445 15.6292 10.9106 15.2501 10.7173C14.8709 10.5241 14.5896 10.1949 14.4581 9.79011C14.3266 9.38539 14.3606 8.95367 14.5538 8.5745C14.747 8.19533 15.0763 7.91408 15.4811 7.7826C15.6431 7.72991 15.8095 7.7038 15.9751 7.7038C16.223 7.7038 16.4693 7.76239 16.6967 7.87827Z" fill="white"/>
<path d="M12.3418 11C12.3418 10.1136 11.6208 9.39255 10.7344 9.39255C9.84803 9.39255 9.12695 10.1136 9.12695 11C9.12695 11.8864 9.84803 12.6074 10.7344 12.6074C11.6208 12.6074 12.3418 11.8864 12.3418 11ZM10.0645 11C10.0645 10.6306 10.365 10.3301 10.7344 10.3301C11.1038 10.3301 11.4043 10.6306 11.4043 11C11.4043 11.3694 11.1038 11.6699 10.7344 11.6699C10.365 11.6699 10.0645 11.3694 10.0645 11Z" fill="white"/>
<path d="M23.8627 19.7073C23.3326 19.1772 22.6279 18.8853 21.8783 18.8853C21.1287 18.8853 20.424 19.1772 19.8939 19.7073C19.1913 20.4099 18.2571 20.7969 17.2634 20.7969H15.1344C16.3078 20.2693 17.3877 19.5273 18.3247 18.5903C20.3522 16.5629 21.4688 13.8673 21.4688 11C21.4688 8.90281 20.8638 6.87102 19.7192 5.12427C19.5774 4.9077 19.2868 4.84719 19.0702 4.98908C18.8537 5.13097 18.7932 5.42155 18.9351 5.63806C19.9793 7.23172 20.5312 9.08586 20.5312 11C20.5312 16.402 16.1364 20.7969 10.7344 20.7969C5.33236 20.7969 0.9375 16.402 0.9375 11C0.9375 5.59798 5.33236 1.20312 10.7344 1.20312C12.6517 1.20312 14.5086 1.75681 16.104 2.80438C16.3204 2.9465 16.611 2.88627 16.7531 2.6698C16.8952 2.45338 16.835 2.1628 16.6185 2.02067C14.8698 0.872516 12.8351 0.265625 10.7344 0.265625C7.86713 0.265625 5.17148 1.38219 3.14405 3.40967C1.11661 5.43716 0 8.13275 0 11C0 13.8673 1.11656 16.5629 3.14405 18.5904C5.17148 20.6178 7.86713 21.7344 10.7344 21.7344H17.2634C18.5075 21.7344 19.6771 21.2499 20.5568 20.3702C20.9098 20.0172 21.3791 19.8228 21.8783 19.8228C22.3775 19.8228 22.8468 20.0172 23.1998 20.3702C23.3828 20.5532 23.6796 20.5532 23.8627 20.3702C24.0458 20.1871 24.0458 19.8903 23.8627 19.7073Z" fill="white"/>
<path d="M17.9968 4.21297C18.1201 4.21297 18.241 4.16328 18.3282 4.0761C18.4154 3.98844 18.4656 3.86797 18.4656 3.74469C18.4656 3.62094 18.4154 3.50047 18.3282 3.41281C18.241 3.32563 18.1201 3.27594 17.9968 3.27594C17.8735 3.27594 17.7526 3.32563 17.6654 3.41281C17.5782 3.50047 17.5281 3.62094 17.5281 3.74469C17.5281 3.86797 17.5782 3.98891 17.6654 4.0761C17.7526 4.16328 17.8735 4.21297 17.9968 4.21297Z" fill="white"/>
</svg>
