<svg width="24" height="24" viewBox="0 0 24 24" fill="none" xmlns="http://www.w3.org/2000/svg">
<g id="basil:vk-solid">
<path id="Vector" d="M21.503 18.3811H19.222C18.359 18.3811 18.099 17.6821 16.552 16.1341C15.2 14.8311 14.629 14.6691 14.287 14.6691C13.814 14.6691 13.685 14.7991 13.685 15.4501V17.5021C13.685 18.0571 13.505 18.3821 12.055 18.3821C10.6483 18.2876 9.28416 17.8602 8.07497 17.1352C6.86578 16.4103 5.84612 15.4084 5.1 14.2121C3.32839 12.0071 2.09571 9.41917 1.5 6.65409C1.5 6.31209 1.63 6.00209 2.282 6.00209H4.562C5.148 6.00209 5.359 6.26309 5.589 6.86609C6.696 10.1241 8.585 12.9581 9.352 12.9581C9.646 12.9581 9.774 12.8281 9.774 12.0951V8.73909C9.677 7.20809 8.864 7.07909 8.864 6.52509C8.87428 6.37893 8.94114 6.24254 9.05037 6.14488C9.15961 6.04723 9.30261 5.996 9.449 6.00209H13.033C13.523 6.00209 13.685 6.24609 13.685 6.83209V11.3621C13.685 11.8511 13.895 12.0131 14.043 12.0131C14.337 12.0131 14.563 11.8511 15.102 11.3131C16.2574 9.90408 17.2013 8.33426 17.904 6.65309C17.9759 6.45124 18.1119 6.27846 18.2912 6.16111C18.4705 6.04375 18.6832 5.98825 18.897 6.00309H21.178C21.862 6.00309 22.007 6.34509 21.862 6.83309C21.0324 8.69151 20.0058 10.4556 18.8 12.0951C18.554 12.4701 18.456 12.6651 18.8 13.1051C19.026 13.4471 19.826 14.1151 20.363 14.7501C21.145 15.5301 21.794 16.4321 22.285 17.4201C22.481 18.0561 22.154 18.3811 21.503 18.3811Z" fill="white"/>
</g>
</svg>
